<?xml version="1.0" encoding="UTF-8" standalone="no"?>
<!-- Created with Inkscape (http://www.inkscape.org/) -->

<svg
   width="214.48975mm"
   height="158.0462mm"
   viewBox="0 0 214.48975 158.0462"
   version="1.1"
   id="svg5"
   xml:space="preserve"
   inkscape:export-filename="large3.svg"
   inkscape:export-xdpi="96"
   inkscape:export-ydpi="96"
   xmlns:inkscape="http://www.inkscape.org/namespaces/inkscape"
   xmlns:sodipodi="http://sodipodi.sourceforge.net/DTD/sodipodi-0.dtd"
   xmlns="http://www.w3.org/2000/svg"
   xmlns:svg="http://www.w3.org/2000/svg"><sodipodi:namedview
     id="namedview7"
     pagecolor="#ffffff"
     bordercolor="#000000"
     borderopacity="0.25"
     inkscape:showpageshadow="2"
     inkscape:pageopacity="0.0"
     inkscape:pagecheckerboard="0"
     inkscape:deskcolor="#d1d1d1"
     inkscape:document-units="mm"
     showgrid="false" /><defs
     id="defs2" /><g
     inkscape:label="Layer 1"
     inkscape:groupmode="layer"
     id="layer1"
     transform="translate(92.341662,54.894068)"><path
       d="M -35.898098,-54.894071 H 9.2583432 V -9.7376338 H -35.898098 Z m -56.443562,0 h 45.156437 V -9.7376338 H -92.34166 Z M -35.898098,1.5521362 H 9.2583432 V 46.705927 H -35.898098 Z M 65.701903,-54.894071 V -9.7376338 H 20.548113 V -54.894071 Z M -35.898098,57.995697 H 9.2583432 V 103.15214 H -35.898098 Z M 122.1481,-54.894071 V -9.7376338 H 76.991673 V -54.894071 Z M -92.34166,1.5521362 h 45.156437 V 46.705927 H -92.34166 Z m 112.889773,0 h 45.15379 V 46.705927 h -45.15379 z m 56.44356,0 H 122.1481 V 46.705927 H 76.991673 Z M -92.34166,57.995697 h 45.156437 V 103.15214 H -92.34166 Z m 112.889773,0 h 45.15379 v 45.156443 h -45.15379 z m 56.44356,0 H 122.1481 V 103.15214 H 76.991673 Z"
       id="path349"
       style="mix-blend-mode:normal;fill:#000000;fill-rule:nonzero;stroke-width:0.264583" /></g></svg>
